<svg width="324" height="324" viewBox="0 0 324 324" fill="none" xmlns="http://www.w3.org/2000/svg">
<mask id="mask0" mask-type="alpha" maskUnits="userSpaceOnUse" x="0" y="0" width="324" height="324">
<circle cx="162" cy="162" r="162" fill="url(#paint0_linear)"/>
</mask>
<g mask="url(#mask0)">
<circle cx="162" cy="162" r="162" fill="url(#paint1_linear)"/>
<path d="M130.419 293.513V327.726L143.578 337.961V293.513C139.191 292.246 130.419 290.472 130.419 293.513Z" fill="#1E1E1E"/>
<path d="M108.195 265.935V334.039L81.8774 354.412V265.935C90.6499 263.412 108.195 259.881 108.195 265.935Z" fill="#1E1E1E"/>
<path d="M263.177 229.271V312.992L240.953 338.036V229.271C248.361 226.171 263.177 221.83 263.177 229.271Z" fill="#1E1E1E"/>
<path d="M214.635 250.539H221.772V247.386V242.708L232.181 250.539V316.982H214.635V250.539Z" fill="#1E1E1E"/>
<path d="M189.487 373.126V364.354V268.44H206.74V364.354H196.505V373.126H189.487Z" fill="#1E1E1E"/>
<path d="M147.964 314.935V329.848H154.982V308.209L147.964 314.935Z" fill="#1E1E1E"/>
<path d="M111.412 307.332V322.83H125.448V299.144V295.928L122.231 292.126L118.722 295.928V299.144H111.412V307.332Z" fill="#1E1E1E"/>
<path d="M159.076 234.103V330.414V335.697H184.224V234.103L171.65 225.162L159.076 234.103Z" fill="#1E1E1E"/>
<rect x="85.9712" y="271.365" width="4.6787" height="4.6787" fill="white"/>
<rect x="85.9712" y="280.137" width="4.6787" height="4.6787" fill="white"/>
<rect x="85.9712" y="288.91" width="4.6787" height="4.6787" fill="white"/>
<rect x="97.668" y="271.365" width="4.6787" height="4.6787" fill="white"/>
<rect x="97.668" y="280.137" width="4.6787" height="4.6787" fill="white"/>
<rect x="97.668" y="288.91" width="4.6787" height="4.6787" fill="white"/>
<rect x="113.458" y="301.191" width="9.3574" height="2.33935" fill="white"/>
<rect x="163.17" y="236.859" width="18.13" height="4.6787" fill="white"/>
<rect x="163.17" y="257.913" width="18.13" height="4.6787" fill="white"/>
<rect x="163.17" y="264.931" width="18.13" height="4.6787" fill="white"/>
<rect x="163.17" y="236.859" width="18.13" height="4.6787" fill="white"/>
<rect x="163.17" y="243.877" width="9.3574" height="4.6787" fill="white"/>
<rect x="171.942" y="250.895" width="9.3574" height="4.6787" fill="white"/>
<rect x="113.458" y="304.7" width="9.3574" height="2.33935" fill="white"/>
<rect x="113.458" y="308.209" width="9.3574" height="2.33935" fill="white"/>
<circle cx="161.708" cy="68.1336" r="31.8736" fill="#A7FF83"/>
<circle cx="159.661" cy="69.0108" r="26.9025" fill="#BAFF9E"/>
<circle cx="162" cy="67.8412" r="22.2238" fill="#D3FFC0"/>
<circle cx="161.708" cy="67.5488" r="17.2527" fill="#E9FFE0"/>
<circle cx="162" cy="67.2563" r="11.1119" fill="white"/>
<rect x="133.343" y="296.513" width="3.50903" height="3.50903" fill="white"/>
<rect x="136.852" y="310.549" width="3.50903" height="3.50903" fill="white"/>
<rect x="149.134" y="315.812" width="1.75451" height="1.75451" fill="white"/>
<path d="M149.134 318.152H150.888V319.906H149.134V318.152Z" fill="white"/>
<path d="M152.058 318.152H153.812V319.906H152.058V318.152Z" fill="white"/>
<path d="M152.058 315.812H153.812V317.567H152.058V315.812Z" fill="white"/>
<path d="M244.462 233.35H248.556V237.444H244.462V233.35Z" fill="white"/>
<path d="M250.31 233.35H254.404V237.444H250.31V233.35Z" fill="white"/>
<path d="M256.159 233.35H260.253V237.444H256.159V233.35Z" fill="white"/>
<path d="M244.462 242.123H248.556V246.217H244.462V242.123Z" fill="white"/>
<path d="M250.31 242.123H254.404V246.217H250.31V242.123Z" fill="white"/>
<path d="M256.159 242.123H260.253V246.217H256.159V242.123Z" fill="white"/>
<path d="M244.462 250.31H248.556V254.404H244.462V250.31Z" fill="white"/>
<path d="M250.31 250.31H254.404V254.404H250.31V250.31Z" fill="white"/>
<path d="M256.159 250.31H260.253V254.404H256.159V250.31Z" fill="white"/>
<path d="M244.462 259.083H248.556V263.177H244.462V259.083Z" fill="white"/>
<path d="M250.31 259.083H254.404V263.177H250.31V259.083Z" fill="white"/>
<path d="M256.159 259.083H260.253V263.177H256.159V259.083Z" fill="white"/>
<path d="M244.462 267.856H248.556V271.949H244.462V267.856Z" fill="white"/>
<path d="M250.31 267.856H254.404V271.949H250.31V267.856Z" fill="white"/>
<path d="M256.159 267.856H260.253V271.949H256.159V267.856Z" fill="white"/>
<path d="M244.462 276.628H248.556V280.722H244.462V276.628Z" fill="white"/>
<path d="M250.31 276.628H254.404V280.722H250.31V276.628Z" fill="white"/>
<path d="M256.159 276.628H260.253V280.722H256.159V276.628Z" fill="white"/>
<path d="M244.462 284.816H248.556V288.91H244.462V284.816Z" fill="white"/>
<path d="M250.31 284.816H254.404V288.91H250.31V284.816Z" fill="white"/>
<path d="M256.159 284.816H260.253V288.91H256.159V284.816Z" fill="white"/>
<path d="M191.242 270.195H205.278V275.458H191.242V270.195Z" fill="white"/>
<path d="M191.242 300.606H205.278V305.87H191.242V300.606Z" fill="white"/>
</g>
<defs>
<linearGradient id="paint0_linear" x1="162" y1="0" x2="162" y2="324" gradientUnits="userSpaceOnUse">
<stop stop-color="#2E2E2E"/>
<stop offset="1" stop-color="#A7FF83"/>
</linearGradient>
<linearGradient id="paint1_linear" x1="162" y1="0" x2="162" y2="324" gradientUnits="userSpaceOnUse">
<stop stop-color="#373737"/>
<stop offset="1" stop-color="#A7FF83"/>
</linearGradient>
</defs>
</svg>
