<svg width="501" height="501" viewBox="0 0 501 501" fill="none" xmlns="http://www.w3.org/2000/svg">
<mask id="mask0" mask-type="alpha" maskUnits="userSpaceOnUse" x="0" y="0" width="501" height="501">
<circle cx="250.5" cy="250.5" r="250.5" fill="url(#paint0_linear)"/>
</mask>
<g mask="url(#mask0)">
<circle cx="250.5" cy="250.5" r="250.5" fill="url(#paint1_linear)"/>
<path d="M201.666 453.858V506.762L222.013 522.588V453.858C215.231 451.899 201.666 449.156 201.666 453.858Z" fill="#1E1E1E"/>
<path d="M167.302 411.214V516.523L126.607 548.025V411.214C140.172 407.313 167.302 401.853 167.302 411.214Z" fill="#1E1E1E"/>
<path d="M406.949 354.522V483.978L372.585 522.704V354.522C384.04 349.727 406.949 343.014 406.949 354.522Z" fill="#1E1E1E"/>
<path d="M331.89 387.408H342.926V382.532V375.298L359.02 387.408V490.148H331.89V387.408Z" fill="#1E1E1E"/>
<path d="M293.004 576.964V563.399V415.088H319.681V563.399H303.856V576.964H293.004Z" fill="#1E1E1E"/>
<path d="M228.796 486.983V510.043H239.648V476.583L228.796 486.983Z" fill="#1E1E1E"/>
<path d="M172.275 475.227V499.191H193.979V462.566V457.592L189.006 451.714L183.58 457.592V462.566H172.275V475.227Z" fill="#1E1E1E"/>
<path d="M245.978 361.992V510.918V519.087H284.865V361.992L265.421 348.168L245.978 361.992Z" fill="#1E1E1E"/>
<rect x="132.937" y="419.61" width="7.23466" height="7.23466" fill="white"/>
<rect x="132.937" y="433.175" width="7.23466" height="7.23466" fill="white"/>
<rect x="132.937" y="446.74" width="7.23466" height="7.23466" fill="white"/>
<rect x="151.023" y="419.61" width="7.23466" height="7.23466" fill="white"/>
<rect x="151.023" y="433.175" width="7.23466" height="7.23466" fill="white"/>
<rect x="151.023" y="446.74" width="7.23466" height="7.23466" fill="white"/>
<rect x="175.44" y="465.731" width="14.4693" height="3.61733" fill="white"/>
<rect x="252.309" y="366.255" width="28.0343" height="7.23466" fill="white"/>
<rect x="252.309" y="398.81" width="28.0343" height="7.23466" fill="white"/>
<rect x="252.309" y="409.662" width="28.0343" height="7.23466" fill="white"/>
<rect x="252.309" y="366.255" width="28.0343" height="7.23466" fill="white"/>
<rect x="252.309" y="377.107" width="14.4693" height="7.23466" fill="white"/>
<rect x="265.874" y="387.958" width="14.4693" height="7.23466" fill="white"/>
<rect x="175.44" y="471.157" width="14.4693" height="3.61733" fill="white"/>
<rect x="175.44" y="476.583" width="14.4693" height="3.61733" fill="white"/>
<circle cx="250.048" cy="105.355" r="49.2861" fill="#A7FF83"/>
<circle cx="246.883" cy="106.711" r="41.5993" fill="#BAFF9E"/>
<circle cx="250.5" cy="104.903" r="34.3646" fill="#D3FFC0"/>
<circle cx="250.048" cy="104.45" r="26.6778" fill="#E9FFE0"/>
<circle cx="250.5" cy="103.998" r="17.1823" fill="white"/>
<rect x="206.188" y="458.496" width="5.42599" height="5.42599" fill="white"/>
<rect x="211.614" y="480.2" width="5.42599" height="5.42599" fill="white"/>
<rect x="230.605" y="488.339" width="2.713" height="2.713" fill="white"/>
<path d="M230.605 491.957H233.318V494.67H230.605V491.957Z" fill="white"/>
<path d="M235.126 491.957H237.839V494.67H235.126V491.957Z" fill="white"/>
<path d="M235.126 488.339H237.839V491.052H235.126V488.339Z" fill="white"/>
<path d="M378.011 360.829H384.341V367.159H378.011V360.829Z" fill="white"/>
<path d="M387.054 360.829H393.384V367.159H387.054V360.829Z" fill="white"/>
<path d="M396.097 360.829H402.428V367.159H396.097V360.829Z" fill="white"/>
<path d="M378.011 374.394H384.341V380.724H378.011V374.394Z" fill="white"/>
<path d="M387.054 374.394H393.384V380.724H387.054V374.394Z" fill="white"/>
<path d="M396.097 374.394H402.428V380.724H396.097V374.394Z" fill="white"/>
<path d="M378.011 387.054H384.341V393.384H378.011V387.054Z" fill="white"/>
<path d="M387.054 387.054H393.384V393.384H387.054V387.054Z" fill="white"/>
<path d="M396.097 387.054H402.428V393.384H396.097V387.054Z" fill="white"/>
<path d="M378.011 400.619H384.341V406.949H378.011V400.619Z" fill="white"/>
<path d="M387.054 400.619H393.384V406.949H387.054V400.619Z" fill="white"/>
<path d="M396.097 400.619H402.428V406.949H396.097V400.619Z" fill="white"/>
<path d="M378.011 414.184H384.341V420.514H378.011V414.184Z" fill="white"/>
<path d="M387.054 414.184H393.384V420.514H387.054V414.184Z" fill="white"/>
<path d="M396.097 414.184H402.428V420.514H396.097V414.184Z" fill="white"/>
<path d="M378.011 427.749H384.341V434.079H378.011V427.749Z" fill="white"/>
<path d="M387.054 427.749H393.384V434.079H387.054V427.749Z" fill="white"/>
<path d="M396.097 427.749H402.428V434.079H396.097V427.749Z" fill="white"/>
<path d="M378.011 440.41H384.341V446.74H378.011V440.41Z" fill="white"/>
<path d="M387.054 440.41H393.384V446.74H387.054V440.41Z" fill="white"/>
<path d="M396.097 440.41H402.428V446.74H396.097V440.41Z" fill="white"/>
<path d="M295.717 417.801H317.421V425.94H295.717V417.801Z" fill="white"/>
<path d="M295.717 464.827H317.421V472.966H295.717V464.827Z" fill="white"/>
</g>
<defs>
<linearGradient id="paint0_linear" x1="250.5" y1="0" x2="250.5" y2="501" gradientUnits="userSpaceOnUse">
<stop stop-color="#2E2E2E"/>
<stop offset="1" stop-color="#A7FF83"/>
</linearGradient>
<linearGradient id="paint1_linear" x1="250.5" y1="0" x2="250.5" y2="501" gradientUnits="userSpaceOnUse">
<stop stop-color="#373737"/>
<stop offset="1" stop-color="#A7FF83"/>
</linearGradient>
</defs>
</svg>
