<svg width="521" height="314" viewBox="0 0 521 314" fill="none" xmlns="http://www.w3.org/2000/svg">
<path opacity="0.77" d="M489.765 158.689C489.765 126.194 581.363 25.3105 450.84 71.0971C320.317 116.884 342.945 3.41267 266.291 3.41267C142.869 3.41267 160.284 131.956 42.8162 158.689C-74.6511 185.421 142.869 313.965 266.291 313.965C318.342 313.965 433.283 308.345 404.223 280.868C375.163 253.39 489.765 208.279 489.765 158.689Z" fill="#92EA6E"/>
<path d="M480.665 155.276C480.665 122.781 572.263 21.8979 441.74 67.6845C311.217 113.471 333.845 1.29938e-05 257.19 1.29938e-05C133.769 1.29938e-05 151.183 128.544 33.7158 155.276C-83.7515 182.009 133.769 310.552 257.19 310.552C309.241 310.552 424.182 304.932 395.122 277.455C366.062 249.978 480.665 204.866 480.665 155.276Z" fill="#A7FF83"/>
<rect x="233.767" y="222.392" width="30.714" height="9.10044" rx="4" fill="#C4C4C4"/>
<rect x="223.529" y="230.924" width="50.6212" height="9.10044" rx="4.55022" fill="#1E1E1E"/>
<rect x="76.2162" y="199.072" width="345.817" height="26.1638" rx="9" fill="white"/>
<rect x="76.2162" y="43.7958" width="345.817" height="161.533" rx="14" fill="#1E1E1E"/>
<rect x="88.7292" y="59.1528" width="320.222" height="131.388" fill="#2E2E2E"/>
<path d="M105.224 64.8406H393.025V184.284H105.224V64.8406Z" fill="white"/>
<rect x="105.224" y="64.8406" width="93.8483" height="119.443" fill="#1E1E1E"/>
<circle cx="248.84" cy="214.713" r="5.40338" fill="#1E1E1E"/>
<rect x="205.329" y="74.5098" width="172.34" height="3.41266" rx="1.70633" fill="#C4C4C4"/>
<rect x="205.329" y="91.5732" width="151.295" height="2.84389" rx="1.42194" fill="#C4C4C4"/>
<rect x="205.329" y="120.012" width="27.3013" height="2.84389" rx="1.42194" fill="#C4C4C4"/>
<rect x="205.329" y="104.086" width="151.295" height="2.84389" rx="1.42194" fill="#C4C4C4"/>
<rect x="205.329" y="97.8297" width="151.295" height="2.84389" rx="1.42194" fill="#C4C4C4"/>
<rect x="205.329" y="110.343" width="151.295" height="2.84389" rx="1.42194" fill="#C4C4C4"/>
<rect x="205.329" y="126.269" width="151.295" height="2.84389" rx="1.42194" fill="#C4C4C4"/>
<rect x="205.329" y="170.633" width="59.7216" height="2.84389" rx="1.42194" fill="#C4C4C4"/>
<rect x="205.329" y="138.782" width="151.295" height="2.84389" rx="1.42194" fill="#C4C4C4"/>
<rect x="205.329" y="132.525" width="151.295" height="2.84389" rx="1.42194" fill="#C4C4C4"/>
<rect x="112.618" y="71.666" width="79.06" height="105.793" rx="14" fill="white"/>
</svg>
