<svg width="873" height="1024" viewBox="0 0 873 1024" fill="none" xmlns="http://www.w3.org/2000/svg">
<path d="M837.5 1053L0 -26V-75H837.5V1053Z" fill="#68A64F"/>
<path d="M859.5 1053L22 -26V-75H859.5V1053Z" fill="#8BD76C"/>
<path d="M881.5 1053L44 -26V-75H881.5V1053Z" fill="#A7FF83"/>
<rect x="830.186" y="-86" width="34.2753" height="408.686" rx="11" transform="rotate(46.7287 830.186 -86)" fill="#98ED75" fill-opacity="0.28"/>
<rect x="1024.57" y="-118" width="17.934" height="776.451" rx="8.96701" transform="rotate(46.7287 1024.57 -118)" fill="#98ED75" fill-opacity="0.45"/>
<g style="mix-blend-mode:screen">
<rect x="631.571" y="-80" width="46.7113" height="501.089" rx="11" transform="rotate(46.7287 631.571 -80)" fill="#98ED75" fill-opacity="0.45"/>
</g>
<g style="mix-blend-mode:darken">
<rect x="872.691" y="452" width="51.005" height="366.62" rx="11" transform="rotate(46.7287 872.691 452)" fill="#98ED75" fill-opacity="0.45"/>
</g>
<g style="mix-blend-mode:screen">
<rect x="984.1" y="166.063" width="25.1228" height="513.298" rx="11" transform="rotate(46.7287 984.1 166.063)" fill="#98ED75" fill-opacity="0.45"/>
</g>
<g style="mix-blend-mode:screen">
<rect x="984.1" y="166.063" width="6.79657" height="513.298" rx="3.39828" transform="rotate(46.7287 984.1 166.063)" fill="#98ED75" fill-opacity="0.45"/>
</g>
<g style="mix-blend-mode:screen">
<rect x="881.74" y="26" width="35.0996" height="569.854" rx="11" transform="rotate(46.7287 881.74 26)" fill="#98ED75" fill-opacity="0.45"/>
</g>
<g style="mix-blend-mode:screen">
<rect x="494.74" y="-277" width="18.5161" height="513.298" rx="9.25806" transform="rotate(46.7287 494.74 -277)" fill="#98ED75" fill-opacity="0.45"/>
</g>
<g style="mix-blend-mode:overlay">
<rect x="412.571" y="-215" width="46.7113" height="408.686" rx="11" transform="rotate(46.7287 412.571 -215)" fill="#A4FF7E" fill-opacity="0.32"/>
</g>
<g style="mix-blend-mode:screen">
<rect x="664.74" y="-266" width="25.1228" height="513.298" rx="11" transform="rotate(46.7287 664.74 -266)" fill="#98ED75" fill-opacity="0.45"/>
</g>
<g style="mix-blend-mode:screen">
<rect x="664.74" y="-266" width="6.79657" height="513.298" rx="3.39828" transform="rotate(46.7287 664.74 -266)" fill="#98ED75" fill-opacity="0.45"/>
</g>
<rect x="1287.35" y="322" width="17.934" height="776.451" rx="8.96701" transform="rotate(46.7287 1287.35 322)" fill="#98ED75" fill-opacity="0.45"/>
<g style="mix-blend-mode:screen">
<rect x="1144.52" y="466" width="35.0996" height="569.854" rx="11" transform="rotate(46.7287 1144.52 466)" fill="#98ED75" fill-opacity="0.45"/>
</g>
</svg>
