<svg width="42" height="42" viewBox="0 0 42 42" fill="none" xmlns="http://www.w3.org/2000/svg">
<path d="M37.5 32.9297C37.5 34.8047 36.9297 36.2852 35.7891 37.3711C34.6484 38.457 33.1328 39 31.2422 39H10.7578C8.86719 39 7.35156 38.457 6.21094 37.3711C5.07031 36.2852 4.5 34.8047 4.5 32.9297C4.5 32.1016 4.52734 31.293 4.58203 30.5039C4.63672 29.7149 4.74609 28.8633 4.91016 27.9492C5.07422 27.0352 5.28125 26.1875 5.53125 25.4063C5.78125 24.625 6.11719 23.8633 6.53906 23.1211C6.96094 22.3789 7.44531 21.7461 7.99219 21.2227C8.53906 20.6992 9.20703 20.2813 9.99609 19.9688C10.7852 19.6563 11.6562 19.5 12.6094 19.5C12.75 19.5 13.0781 19.668 13.5937 20.0039C14.1094 20.3398 14.6914 20.7148 15.3398 21.1289C15.9883 21.543 16.832 21.918 17.8711 22.2539C18.9102 22.5898 19.9531 22.7578 21 22.7578C22.0469 22.7578 23.0898 22.5898 24.1289 22.2539C25.168 21.918 26.0117 21.543 26.6602 21.1289C27.3086 20.7148 27.8906 20.3398 28.4062 20.0039C28.9219 19.668 29.25 19.5 29.3906 19.5C30.3437 19.5 31.2148 19.6563 32.0039 19.9688C32.793 20.2813 33.4609 20.6992 34.0078 21.2227C34.5547 21.7461 35.0391 22.3789 35.4609 23.1211C35.8828 23.8633 36.2187 24.625 36.4687 25.4063C36.7187 26.1875 36.9258 27.0352 37.0898 27.9492C37.2539 28.8633 37.3633 29.7149 37.418 30.5039C37.4726 31.293 37.5 32.1016 37.5 32.9297ZM30 12C30 14.4844 29.1211 16.6055 27.3633 18.3633C25.6055 20.1211 23.4844 21 21 21C18.5156 21 16.3945 20.1211 14.6367 18.3633C12.8789 16.6055 12 14.4844 12 12C12 9.51563 12.8789 7.39453 14.6367 5.63672C16.3945 3.87891 18.5156 3 21 3C23.4844 3 25.6055 3.87891 27.3633 5.63672C29.1211 7.39453 30 9.51563 30 12Z" fill="#A7FF83"/>
</svg>
